<svg width="20" height="20" viewBox="0 0 20 20" fill="none" xmlns="http://www.w3.org/2000/svg">
<path d="M19.1446 9.87735C19.1446 15.0648 15.0712 19.2671 10.0494 19.2671C5.02747 19.2671 0.954102 15.0618 0.954102 9.87735C0.954102 4.69287 5.02456 0.48761 10.0494 0.48761C15.0742 0.48761 19.1446 4.69287 19.1446 9.87735Z" fill="url(#paint0_linear_201_8)"/>
<path d="M19.1126 9.87736C19.1126 15.0438 15.0538 19.2341 10.0493 19.2341C5.04491 19.2341 0.986084 15.0438 0.986084 9.87736C0.986084 4.7109 5.042 0.52066 10.0493 0.52066C15.0567 0.52066 19.1126 4.7109 19.1126 9.87736Z" fill="url(#paint1_linear_201_8)"/>
<path d="M19.0806 9.87733C19.0806 15.0258 15.0363 19.201 10.0493 19.201C5.06234 19.201 1.01807 15.0258 1.01807 9.87733C1.01807 4.7289 5.05943 0.55368 10.0493 0.55368C15.0392 0.55368 19.0806 4.7289 19.0806 9.87733Z" fill="url(#paint2_linear_201_8)"/>
<path d="M19.0485 9.87734C19.0485 15.0078 15.0188 19.168 10.0493 19.168C5.07978 19.168 1.05005 15.0078 1.05005 9.87734C1.05005 4.74693 5.07687 0.586731 10.0493 0.586731C15.0217 0.586731 19.0485 4.74693 19.0485 9.87734Z" fill="url(#paint3_linear_201_8)"/>
<path d="M19.0136 9.87735C19.0136 14.9897 14.9984 19.1349 10.0463 19.1349C5.09428 19.1349 1.0791 14.9897 1.0791 9.87735C1.0791 4.76496 5.09719 0.619781 10.0492 0.619781C15.0013 0.619781 19.0165 4.76496 19.0165 9.87735H19.0136Z" fill="url(#paint4_linear_201_8)"/>
<path d="M18.9818 9.87735C18.9818 14.9717 14.9812 19.1019 10.0466 19.1019C5.11196 19.1019 1.11133 14.9717 1.11133 9.87735C1.11133 4.78298 5.11487 0.655823 10.0495 0.655823C14.9841 0.655823 18.9847 4.78599 18.9847 9.88035L18.9818 9.87735Z" fill="url(#paint5_linear_201_8)"/>
<path d="M18.9496 9.87736C18.9496 14.9537 14.9635 19.0689 10.0492 19.0689C5.13501 19.0689 1.14893 14.9537 1.14893 9.87736C1.14893 4.80101 5.1321 0.688873 10.0492 0.688873C14.9664 0.688873 18.9496 4.80402 18.9496 9.87736Z" fill="url(#paint6_linear_201_8)"/>
<path d="M18.9178 9.87734C18.9178 14.9357 14.9462 19.0328 10.0495 19.0328C5.15269 19.0328 1.18115 14.9327 1.18115 9.87734C1.18115 4.82202 5.14978 0.721893 10.0495 0.721893C14.9491 0.721893 18.9178 4.82202 18.9178 9.87734Z" fill="url(#paint7_linear_201_8)"/>
<path d="M18.8857 9.87735C18.8857 14.9146 14.9288 18.9997 10.0494 18.9997C5.17012 18.9997 1.21313 14.9146 1.21313 9.87735C1.21313 4.84005 5.16721 0.754944 10.0494 0.754944C14.9317 0.754944 18.8857 4.84005 18.8857 9.87735Z" fill="url(#paint8_linear_201_8)"/>
<path d="M18.8537 9.87736C18.8537 14.8966 14.9113 18.9667 10.0494 18.9667C5.18756 18.9667 1.24512 14.8966 1.24512 9.87736C1.24512 4.85808 5.18465 0.787994 10.0494 0.787994C14.9142 0.787994 18.8537 4.85808 18.8537 9.87736Z" fill="url(#paint9_linear_201_8)"/>
<path d="M18.8217 9.87733C18.8217 14.8786 14.8938 18.9337 10.0494 18.9337C5.20499 18.9337 1.2771 14.8786 1.2771 9.87733C1.2771 4.87608 5.20499 0.821014 10.0494 0.821014C14.8938 0.821014 18.8217 4.87608 18.8217 9.87733Z" fill="url(#paint10_linear_201_8)"/>
<path d="M18.7867 9.87736C18.7867 14.8606 14.8734 18.9006 10.0464 18.9006C5.2195 18.9006 1.30615 14.8606 1.30615 9.87736C1.30615 4.89413 5.22241 0.857086 10.0494 0.857086C14.8763 0.857086 18.7896 4.89714 18.7896 9.88037L18.7867 9.87736Z" fill="url(#paint11_linear_201_8)"/>
<path d="M18.7547 9.87734C18.7547 14.8425 14.8559 18.8676 10.0464 18.8676C5.23693 18.8676 1.33813 14.8425 1.33813 9.87734C1.33813 4.91213 5.23984 0.890106 10.0493 0.890106C14.8588 0.890106 18.7576 4.91514 18.7576 9.88034L18.7547 9.87734Z" fill="url(#paint12_linear_201_8)"/>
<path d="M18.7227 9.87735C18.7227 14.8245 14.8385 18.8315 10.0493 18.8315C5.26023 18.8315 1.37598 14.8215 1.37598 9.87735C1.37598 4.93317 5.25732 0.923157 10.0493 0.923157C14.8414 0.923157 18.7227 4.93317 18.7227 9.87735Z" fill="url(#paint13_linear_201_8)"/>
<path d="M18.6907 9.87736C18.6907 14.8035 14.821 18.7985 10.0493 18.7985C5.27766 18.7985 1.40796 14.8035 1.40796 9.87736C1.40796 4.9512 5.27475 0.956207 10.0493 0.956207C14.8239 0.956207 18.6907 4.9512 18.6907 9.87736Z" fill="url(#paint14_linear_201_8)"/>
<path d="M18.6587 9.87734C18.6587 14.7855 14.8035 18.7654 10.0493 18.7654C5.2951 18.7654 1.43994 14.7855 1.43994 9.87734C1.43994 4.9692 5.29219 0.989227 10.0493 0.989227C14.8064 0.989227 18.6587 4.9692 18.6587 9.87734Z" fill="url(#paint15_linear_201_8)"/>
<path d="M18.6266 9.87735C18.6266 14.7675 14.786 18.7324 10.0493 18.7324C5.31253 18.7324 1.47192 14.7675 1.47192 9.87735C1.47192 4.98723 5.31253 1.02228 10.0493 1.02228C14.786 1.02228 18.6266 4.98723 18.6266 9.87735Z" fill="url(#paint16_linear_201_8)"/>
<path d="M18.5946 9.87736C18.5946 14.7494 14.7685 18.6994 10.0493 18.6994C5.32997 18.6994 1.50391 14.7494 1.50391 9.87736C1.50391 5.00527 5.32997 1.05533 10.0493 1.05533C14.7685 1.05533 18.5946 5.00527 18.5946 9.87736Z" fill="url(#paint17_linear_201_8)"/>
<path d="M18.5599 9.87735C18.5599 14.7314 14.7484 18.6663 10.0465 18.6663C5.34471 18.6663 1.5332 14.7314 1.5332 9.87735C1.5332 5.02328 5.34762 1.09137 10.0495 1.09137C14.7513 1.09137 18.5628 5.02629 18.5628 9.88036L18.5599 9.87735Z" fill="url(#paint18_linear_201_8)"/>
<path d="M18.5279 9.87736C18.5279 14.7134 14.7309 18.6333 10.0465 18.6333C5.36215 18.6333 1.56519 14.7134 1.56519 9.87736C1.56519 5.04132 5.36506 1.12442 10.0494 1.12442C14.7338 1.12442 18.5308 5.04432 18.5308 9.88037L18.5279 9.87736Z" fill="url(#paint19_linear_201_8)"/>
<path d="M18.4959 9.87734C18.4959 14.6954 14.7135 18.6002 10.0495 18.6002C5.38544 18.6002 1.60303 14.6954 1.60303 9.87734C1.60303 5.05932 5.38253 1.15744 10.0495 1.15744C14.7164 1.15744 18.4959 5.06232 18.4959 9.87734Z" fill="url(#paint20_linear_201_8)"/>
<path d="M18.4638 9.87735C18.4638 14.6743 14.696 18.5642 10.0494 18.5642C5.40288 18.5642 1.63501 14.6743 1.63501 9.87735C1.63501 5.08035 5.39997 1.19049 10.0494 1.19049C14.6989 1.19049 18.4638 5.08035 18.4638 9.87735Z" fill="url(#paint21_linear_201_8)"/>
<path d="M18.4318 9.87736C18.4318 14.6563 14.6785 18.5312 10.0494 18.5312C5.42031 18.5312 1.66699 14.6563 1.66699 9.87736C1.66699 5.09838 5.4174 1.22354 10.0494 1.22354C14.6814 1.22354 18.4318 5.09838 18.4318 9.87736Z" fill="url(#paint22_linear_201_8)"/>
<path d="M18.3998 9.87734C18.3998 14.6383 14.661 18.4981 10.0494 18.4981C5.43775 18.4981 1.69897 14.6383 1.69897 9.87734C1.69897 5.11639 5.43775 1.25656 10.0494 1.25656C14.661 1.25656 18.3998 5.11639 18.3998 9.87734Z" fill="url(#paint23_linear_201_8)"/>
<path d="M18.3678 9.87735C18.3678 14.6203 14.6435 18.4651 10.0494 18.4651C5.45518 18.4651 1.73096 14.6203 1.73096 9.87735C1.73096 5.13442 5.45518 1.28961 10.0494 1.28961C14.6435 1.28961 18.3678 5.13442 18.3678 9.87735Z" fill="url(#paint24_linear_201_8)"/>
<path d="M18.3328 9.87736C18.3328 14.6023 14.6231 18.432 10.0464 18.432C5.46969 18.432 1.76001 14.6023 1.76001 9.87736C1.76001 5.15245 5.46969 1.32266 10.0464 1.32266C14.6231 1.32266 18.3328 5.15245 18.3328 9.87736Z" fill="url(#paint25_linear_201_8)"/>
<path d="M18.3008 9.87735C18.3008 14.5842 14.6057 18.399 10.0464 18.399C5.48712 18.399 1.79199 14.5842 1.79199 9.87735C1.79199 5.17047 5.48712 1.3587 10.0464 1.3587C14.6057 1.3587 18.3008 5.17347 18.3008 9.87735Z" fill="url(#paint26_linear_201_8)"/>
<path d="M18.2688 9.87736C18.2688 14.5632 14.5882 18.363 10.0493 18.363C5.51042 18.363 1.82983 14.5632 1.82983 9.87736C1.82983 5.1915 5.51042 1.39175 10.0493 1.39175C14.5882 1.39175 18.2688 5.1915 18.2688 9.87736Z" fill="url(#paint27_linear_201_8)"/>
<path d="M18.2368 9.87734C18.2368 14.5452 14.5707 18.3299 10.0493 18.3299C5.52785 18.3299 1.86182 14.5452 1.86182 9.87734C1.86182 5.2095 5.52785 1.42477 10.0493 1.42477C14.5707 1.42477 18.2368 5.2095 18.2368 9.87734Z" fill="url(#paint28_linear_201_8)"/>
<path d="M18.2047 9.87735C18.2047 14.5272 14.5533 18.2969 10.0493 18.2969C5.54529 18.2969 1.8938 14.5272 1.8938 9.87735C1.8938 5.22754 5.54529 1.45782 10.0493 1.45782C14.5533 1.45782 18.2047 5.22754 18.2047 9.87735Z" fill="url(#paint29_linear_201_8)"/>
<path d="M18.1727 9.87736C18.1727 14.5091 14.5358 18.2638 10.0492 18.2638C5.56272 18.2638 1.92578 14.5091 1.92578 9.87736C1.92578 5.24557 5.56272 1.49088 10.0492 1.49088C14.5358 1.49088 18.1727 5.24557 18.1727 9.87736Z" fill="url(#paint30_linear_201_8)"/>
<path d="M18.1409 9.87734C18.1409 14.4911 14.5185 18.2308 10.0495 18.2308C5.5804 18.2308 1.95801 14.4911 1.95801 9.87734C1.95801 5.26357 5.5804 1.5239 10.0495 1.5239C14.5185 1.5239 18.1409 5.26357 18.1409 9.87734Z" fill="url(#paint31_linear_201_8)"/>
<path d="M18.106 9.87735C18.106 14.4731 14.4981 18.1977 10.0465 18.1977C5.5949 18.1977 1.98706 14.4731 1.98706 9.87735C1.98706 5.2816 5.5949 1.55695 10.0465 1.55695C14.4981 1.55695 18.106 5.2816 18.106 9.87735Z" fill="url(#paint32_linear_201_8)"/>
<path d="M18.074 9.87736C18.074 14.4551 14.4807 18.1647 10.0465 18.1647C5.61236 18.1647 2.02197 14.4551 2.02197 9.87736C2.02197 5.29963 5.61527 1.59 10.0465 1.59C14.4778 1.59 18.074 5.29963 18.074 9.87736Z" fill="url(#paint33_linear_201_8)"/>
<path d="M18.042 9.87735C18.042 14.434 14.4632 18.1287 10.0494 18.1287C5.63563 18.1287 2.05688 14.434 2.05688 9.87735C2.05688 5.32066 5.63563 1.62604 10.0494 1.62604C14.4632 1.62604 18.042 5.32066 18.042 9.87735Z" fill="url(#paint34_linear_201_8)"/>
<path d="M18.0099 9.87736C18.0099 14.416 14.4457 18.0956 10.0494 18.0956C5.65307 18.0956 2.08887 14.416 2.08887 9.87736C2.08887 5.33869 5.65307 1.65909 10.0494 1.65909C14.4457 1.65909 18.0099 5.33869 18.0099 9.87736Z" fill="url(#paint35_linear_201_8)"/>
<path d="M17.9779 9.87734C17.9779 14.398 14.4282 18.0626 10.0494 18.0626C5.6705 18.0626 2.12085 14.398 2.12085 9.87734C2.12085 5.35669 5.6705 1.69211 10.0494 1.69211C14.4282 1.69211 17.9779 5.35669 17.9779 9.87734Z" fill="url(#paint36_linear_201_8)"/>
<path d="M17.9459 9.87735C17.9459 14.38 14.4108 18.0295 10.0494 18.0295C5.68794 18.0295 2.15283 14.38 2.15283 9.87735C2.15283 5.37472 5.68794 1.72516 10.0494 1.72516C14.4108 1.72516 17.9459 5.37472 17.9459 9.87735Z" fill="url(#paint37_linear_201_8)"/>
<path d="M17.9109 9.87736C17.9109 14.362 14.3904 17.9965 10.0464 17.9965C5.70244 17.9965 2.18188 14.362 2.18188 9.87736C2.18188 5.39275 5.70244 1.75821 10.0464 1.75821C14.3904 1.75821 17.9109 5.39275 17.9109 9.87736Z" fill="url(#paint38_linear_201_8)"/>
<path d="M17.8789 9.87734C17.8789 14.3439 14.3729 17.9634 10.0464 17.9634C5.71988 17.9634 2.21387 14.3439 2.21387 9.87734C2.21387 5.41075 5.71988 1.79123 10.0464 1.79123C14.3729 1.79123 17.8789 5.41075 17.8789 9.87734Z" fill="url(#paint39_linear_201_8)"/>
<path d="M17.8469 9.87733C17.8469 14.3229 14.3554 17.9304 10.0464 17.9304C5.73733 17.9304 2.24878 14.3259 2.24878 9.87733C2.24878 5.42877 5.74024 1.82727 10.0464 1.82727C14.3525 1.82727 17.8469 5.43178 17.8469 9.87733Z" fill="url(#paint40_linear_201_8)"/>
<path d="M17.8149 9.87734C17.8149 14.3049 14.338 17.8944 10.0493 17.8944C5.7606 17.8944 2.28369 14.3049 2.28369 9.87734C2.28369 5.44981 5.7606 1.86032 10.0493 1.86032C14.338 1.86032 17.8149 5.44981 17.8149 9.87734Z" fill="url(#paint41_linear_201_8)"/>
<path d="M17.7828 9.87735C17.7828 14.2869 14.3205 17.8613 10.0493 17.8613C5.77804 17.8613 2.31567 14.2869 2.31567 9.87735C2.31567 5.46784 5.77804 1.89337 10.0493 1.89337C14.3205 1.89337 17.7828 5.46784 17.7828 9.87735Z" fill="url(#paint42_linear_201_8)"/>
<path d="M17.7508 9.87736C17.7508 14.2688 14.303 17.8283 10.0492 17.8283C5.79547 17.8283 2.34766 14.2688 2.34766 9.87736C2.34766 5.48587 5.79547 1.92642 10.0492 1.92642C14.303 1.92642 17.7508 5.48587 17.7508 9.87736Z" fill="url(#paint43_linear_201_8)"/>
<path d="M17.719 9.87734C17.719 14.2508 14.2858 17.7952 10.0495 17.7952C5.81315 17.7952 2.37988 14.2508 2.37988 9.87734C2.37988 5.50387 5.81315 1.95944 10.0495 1.95944C14.2858 1.95944 17.719 5.50387 17.719 9.87734Z" fill="url(#paint44_linear_201_8)"/>
<path d="M17.6841 9.87735C17.6841 14.2328 14.2654 17.7622 10.0465 17.7622C5.82766 17.7622 2.40894 14.2328 2.40894 9.87735C2.40894 5.5219 5.82766 1.99249 10.0465 1.99249C14.2654 1.99249 17.6841 5.5219 17.6841 9.87735Z" fill="url(#paint45_linear_201_8)"/>
<path d="M17.6521 9.87736C17.6521 14.2118 14.2479 17.7292 10.0465 17.7292C5.84509 17.7292 2.44092 14.2148 2.44092 9.87736C2.44092 5.53994 5.84509 2.02554 10.0465 2.02554C14.2479 2.02554 17.6521 5.53994 17.6521 9.87736Z" fill="url(#paint46_linear_201_8)"/>
<path d="M17.62 9.87735C17.62 14.1937 14.2304 17.6961 10.0465 17.6961C5.86255 17.6961 2.47583 14.1968 2.47583 9.87735C2.47583 5.55795 5.86546 2.06158 10.0465 2.06158C14.2275 2.06158 17.62 5.56096 17.62 9.87735Z" fill="url(#paint47_linear_201_8)"/>
<path d="M17.588 9.87733C17.588 14.1757 14.213 17.6601 10.0494 17.6601C5.88582 17.6601 2.51074 14.1757 2.51074 9.87733C2.51074 5.57896 5.88582 2.0946 10.0494 2.0946C14.213 2.0946 17.588 5.57896 17.588 9.87733Z" fill="url(#paint48_linear_201_8)"/>
<path d="M17.556 9.87734C17.556 14.1577 14.1955 17.627 10.0494 17.627C5.90326 17.627 2.54272 14.1577 2.54272 9.87734C2.54272 5.59699 5.90326 2.12766 10.0494 2.12766C14.1955 2.12766 17.556 5.59699 17.556 9.87734Z" fill="url(#paint49_linear_201_8)"/>
<path d="M17.524 9.87735C17.524 14.1397 14.178 17.594 10.0493 17.594C5.92069 17.594 2.57471 14.1397 2.57471 9.87735C2.57471 5.61502 5.92069 2.16071 10.0493 2.16071C14.178 2.16071 17.524 5.61502 17.524 9.87735Z" fill="url(#paint50_linear_201_8)"/>
<path d="M17.492 9.87736C17.492 14.1217 14.1605 17.561 10.0493 17.561C5.93812 17.561 2.60669 14.1217 2.60669 9.87736C2.60669 5.63305 5.93812 2.19376 10.0493 2.19376C14.1605 2.19376 17.492 5.63305 17.492 9.87736Z" fill="url(#paint51_linear_201_8)"/>
<path d="M8.14352 8.3094C8.14352 8.82304 7.73909 9.23756 7.24156 9.23756C6.74403 9.23756 6.3396 8.82304 6.3396 8.3094C6.3396 7.79576 6.74403 7.37823 7.24156 7.37823C7.73909 7.37823 8.14352 7.79275 8.14352 8.3094Z" fill="url(#paint52_radial_201_8)"/>
<path d="M13.7561 8.3094C13.7561 8.82304 13.3516 9.23756 12.8541 9.23756C12.3566 9.23756 11.9521 8.82304 11.9521 8.3094C11.9521 7.79576 12.3566 7.37823 12.8541 7.37823C13.3516 7.37823 13.7561 7.79275 13.7561 8.3094Z" fill="url(#paint53_radial_201_8)"/>
<path d="M10.0495 15.3802C12.1414 15.3802 13.8377 13.629 13.8377 11.4693H6.26123C6.26123 13.629 7.9575 15.3802 10.0495 15.3802Z" fill="url(#paint54_radial_201_8)"/>
<defs>
<linearGradient id="paint0_linear_201_8" x1="6.94196" y1="3.37121" x2="13.0438" y2="15.3672" gradientUnits="userSpaceOnUse">
<stop stop-color="#F5DE66"/>
<stop offset="1" stop-color="#E9A561"/>
</linearGradient>
<linearGradient id="paint1_linear_201_8" x1="6.91284" y1="3.32316" x2="13.0053" y2="15.2741" gradientUnits="userSpaceOnUse">
<stop stop-color="#F5DE66"/>
<stop offset="1" stop-color="#E9A560"/>
</linearGradient>
<linearGradient id="paint2_linear_201_8" x1="6.88081" y1="3.27809" x2="12.9697" y2="15.1808" gradientUnits="userSpaceOnUse">
<stop stop-color="#F5DE66"/>
<stop offset="1" stop-color="#E9A55F"/>
</linearGradient>
<linearGradient id="paint3_linear_201_8" x1="6.84878" y1="3.23304" x2="12.9342" y2="15.0904" gradientUnits="userSpaceOnUse">
<stop stop-color="#F5DE66"/>
<stop offset="1" stop-color="#E9A55D"/>
</linearGradient>
<linearGradient id="paint4_linear_201_8" x1="6.81674" y1="3.18799" x2="12.8957" y2="14.9972" gradientUnits="userSpaceOnUse">
<stop stop-color="#F5DE66"/>
<stop offset="1" stop-color="#E9A55C"/>
</linearGradient>
<linearGradient id="paint5_linear_201_8" x1="6.78786" y1="3.14594" x2="12.8603" y2="14.907" gradientUnits="userSpaceOnUse">
<stop stop-color="#F5DE66"/>
<stop offset="1" stop-color="#E9A45B"/>
</linearGradient>
<linearGradient id="paint6_linear_201_8" x1="6.75563" y1="3.10089" x2="12.8216" y2="14.8168" gradientUnits="userSpaceOnUse">
<stop stop-color="#F5DE66"/>
<stop offset="1" stop-color="#E9A45A"/>
</linearGradient>
<linearGradient id="paint7_linear_201_8" x1="6.72676" y1="3.05881" x2="12.7863" y2="14.7296" gradientUnits="userSpaceOnUse">
<stop stop-color="#F5DE66"/>
<stop offset="1" stop-color="#E9A459"/>
</linearGradient>
<linearGradient id="paint8_linear_201_8" x1="6.69473" y1="3.01677" x2="12.7507" y2="14.6392" gradientUnits="userSpaceOnUse">
<stop stop-color="#F5DE66"/>
<stop offset="1" stop-color="#E9A458"/>
</linearGradient>
<linearGradient id="paint9_linear_201_8" x1="6.66561" y1="2.97473" x2="12.7121" y2="14.5522" gradientUnits="userSpaceOnUse">
<stop stop-color="#F5DE66"/>
<stop offset="1" stop-color="#E9A456"/>
</linearGradient>
<linearGradient id="paint10_linear_201_8" x1="6.63358" y1="2.93566" x2="12.6766" y2="14.4648" gradientUnits="userSpaceOnUse">
<stop stop-color="#F5DE66"/>
<stop offset="1" stop-color="#E9A455"/>
</linearGradient>
<linearGradient id="paint11_linear_201_8" x1="6.60444" y1="2.89363" x2="12.641" y2="14.3776" gradientUnits="userSpaceOnUse">
<stop stop-color="#F5DE66"/>
<stop offset="1" stop-color="#E9A454"/>
</linearGradient>
<linearGradient id="paint12_linear_201_8" x1="6.57533" y1="2.85456" x2="12.6023" y2="14.2905" gradientUnits="userSpaceOnUse">
<stop stop-color="#F5DE66"/>
<stop offset="1" stop-color="#E9A453"/>
</linearGradient>
<linearGradient id="paint13_linear_201_8" x1="6.54334" y1="2.81552" x2="12.5668" y2="14.2031" gradientUnits="userSpaceOnUse">
<stop stop-color="#F5DE66"/>
<stop offset="1" stop-color="#E9A352"/>
</linearGradient>
<linearGradient id="paint14_linear_201_8" x1="6.51422" y1="2.77648" x2="12.5312" y2="14.119" gradientUnits="userSpaceOnUse">
<stop stop-color="#F5DE66"/>
<stop offset="1" stop-color="#E9A351"/>
</linearGradient>
<linearGradient id="paint15_linear_201_8" x1="6.4851" y1="2.73741" x2="12.4926" y2="14.0349" gradientUnits="userSpaceOnUse">
<stop stop-color="#F5DE66"/>
<stop offset="1" stop-color="#E9A34F"/>
</linearGradient>
<linearGradient id="paint16_linear_201_8" x1="6.45598" y1="2.70138" x2="12.4569" y2="13.9506" gradientUnits="userSpaceOnUse">
<stop stop-color="#F5DE66"/>
<stop offset="1" stop-color="#E9A34E"/>
</linearGradient>
<linearGradient id="paint17_linear_201_8" x1="6.42687" y1="2.66534" x2="12.4213" y2="13.8664" gradientUnits="userSpaceOnUse">
<stop stop-color="#F5DE66"/>
<stop offset="1" stop-color="#E9A34D"/>
</linearGradient>
<linearGradient id="paint18_linear_201_8" x1="6.39797" y1="2.62929" x2="12.3859" y2="13.7852" gradientUnits="userSpaceOnUse">
<stop stop-color="#F5DE66"/>
<stop offset="1" stop-color="#E9A34C"/>
</linearGradient>
<linearGradient id="paint19_linear_201_8" x1="6.36885" y1="2.59326" x2="12.3473" y2="13.7011" gradientUnits="userSpaceOnUse">
<stop stop-color="#F5DE66"/>
<stop offset="1" stop-color="#E9A34B"/>
</linearGradient>
<linearGradient id="paint20_linear_201_8" x1="6.33978" y1="2.55719" x2="12.3117" y2="13.6199" gradientUnits="userSpaceOnUse">
<stop stop-color="#F5DE66"/>
<stop offset="1" stop-color="#E9A349"/>
</linearGradient>
<linearGradient id="paint21_linear_201_8" x1="6.31357" y1="2.52416" x2="12.2759" y2="13.5388" gradientUnits="userSpaceOnUse">
<stop stop-color="#F5DE66"/>
<stop offset="1" stop-color="#E9A348"/>
</linearGradient>
<linearGradient id="paint22_linear_201_8" x1="6.28445" y1="2.48812" x2="12.2403" y2="13.4576" gradientUnits="userSpaceOnUse">
<stop stop-color="#F5DE66"/>
<stop offset="1" stop-color="#E9A247"/>
</linearGradient>
<linearGradient id="paint23_linear_201_8" x1="6.25533" y1="2.45506" x2="12.2047" y2="13.3794" gradientUnits="userSpaceOnUse">
<stop stop-color="#F5DE66"/>
<stop offset="1" stop-color="#E9A246"/>
</linearGradient>
<linearGradient id="paint24_linear_201_8" x1="6.22912" y1="2.42203" x2="12.1689" y2="13.2983" gradientUnits="userSpaceOnUse">
<stop stop-color="#F5DE66"/>
<stop offset="1" stop-color="#E9A245"/>
</linearGradient>
<linearGradient id="paint25_linear_201_8" x1="6.19998" y1="2.392" x2="12.1332" y2="13.2201" gradientUnits="userSpaceOnUse">
<stop stop-color="#F5DE66"/>
<stop offset="1" stop-color="#E9A244"/>
</linearGradient>
<linearGradient id="paint26_linear_201_8" x1="6.17378" y1="2.35895" x2="12.0975" y2="13.142" gradientUnits="userSpaceOnUse">
<stop stop-color="#F5DE66"/>
<stop offset="1" stop-color="#E8A242"/>
</linearGradient>
<linearGradient id="paint27_linear_201_8" x1="6.1447" y1="2.32893" x2="12.0619" y2="13.0638" gradientUnits="userSpaceOnUse">
<stop stop-color="#F5DE66"/>
<stop offset="1" stop-color="#E8A241"/>
</linearGradient>
<linearGradient id="paint28_linear_201_8" x1="6.11849" y1="2.29887" x2="12.0262" y2="12.9887" gradientUnits="userSpaceOnUse">
<stop stop-color="#F5DE66"/>
<stop offset="1" stop-color="#E8A240"/>
</linearGradient>
<linearGradient id="paint29_linear_201_8" x1="6.09228" y1="2.26884" x2="11.9904" y2="12.9107" gradientUnits="userSpaceOnUse">
<stop stop-color="#F5DE66"/>
<stop offset="1" stop-color="#E8A23F"/>
</linearGradient>
<linearGradient id="paint30_linear_201_8" x1="6.06607" y1="2.23881" x2="11.9547" y2="12.8356" gradientUnits="userSpaceOnUse">
<stop stop-color="#F5DE66"/>
<stop offset="1" stop-color="#E8A13E"/>
</linearGradient>
<linearGradient id="paint31_linear_201_8" x1="6.04011" y1="2.21176" x2="11.9191" y2="12.7605" gradientUnits="userSpaceOnUse">
<stop stop-color="#F5DE66"/>
<stop offset="1" stop-color="#E8A13D"/>
</linearGradient>
<linearGradient id="paint32_linear_201_8" x1="6.01388" y1="2.18173" x2="11.8834" y2="12.6854" gradientUnits="userSpaceOnUse">
<stop stop-color="#F5DE66"/>
<stop offset="1" stop-color="#E8A13B"/>
</linearGradient>
<linearGradient id="paint33_linear_201_8" x1="5.98769" y1="2.1547" x2="11.8476" y2="12.6104" gradientUnits="userSpaceOnUse">
<stop stop-color="#F5DE66"/>
<stop offset="1" stop-color="#E8A13A"/>
</linearGradient>
<linearGradient id="paint34_linear_201_8" x1="5.9615" y1="2.12766" x2="11.8119" y2="12.5383" gradientUnits="userSpaceOnUse">
<stop stop-color="#F5DE66"/>
<stop offset="1" stop-color="#E8A139"/>
</linearGradient>
<linearGradient id="paint35_linear_201_8" x1="5.93529" y1="2.10064" x2="11.7792" y2="12.4661" gradientUnits="userSpaceOnUse">
<stop stop-color="#F5DE66"/>
<stop offset="1" stop-color="#E8A138"/>
</linearGradient>
<linearGradient id="paint36_linear_201_8" x1="5.90908" y1="2.07659" x2="11.7434" y2="12.394" gradientUnits="userSpaceOnUse">
<stop stop-color="#F5DE66"/>
<stop offset="1" stop-color="#E8A137"/>
</linearGradient>
<linearGradient id="paint37_linear_201_8" x1="5.88288" y1="2.04956" x2="11.7077" y2="12.3219" gradientUnits="userSpaceOnUse">
<stop stop-color="#F5DE66"/>
<stop offset="1" stop-color="#E8A135"/>
</linearGradient>
<linearGradient id="paint38_linear_201_8" x1="5.85956" y1="2.02554" x2="11.6718" y2="12.25" gradientUnits="userSpaceOnUse">
<stop stop-color="#F5DE66"/>
<stop offset="1" stop-color="#E8A134"/>
</linearGradient>
<linearGradient id="paint39_linear_201_8" x1="5.83335" y1="2.00149" x2="11.639" y2="12.1778" gradientUnits="userSpaceOnUse">
<stop stop-color="#F5DE66"/>
<stop offset="1" stop-color="#E8A033"/>
</linearGradient>
<linearGradient id="paint40_linear_201_8" x1="5.81007" y1="1.97746" x2="11.6032" y2="12.1088" gradientUnits="userSpaceOnUse">
<stop stop-color="#F5DE66"/>
<stop offset="1" stop-color="#E8A032"/>
</linearGradient>
<linearGradient id="paint41_linear_201_8" x1="5.78388" y1="1.95344" x2="11.5675" y2="12.0398" gradientUnits="userSpaceOnUse">
<stop stop-color="#F5DE66"/>
<stop offset="1" stop-color="#E8A031"/>
</linearGradient>
<linearGradient id="paint42_linear_201_8" x1="5.76058" y1="1.93242" x2="11.5346" y2="11.9707" gradientUnits="userSpaceOnUse">
<stop stop-color="#F5DE66"/>
<stop offset="1" stop-color="#E8A030"/>
</linearGradient>
<linearGradient id="paint43_linear_201_8" x1="5.73728" y1="1.9084" x2="11.4988" y2="11.9018" gradientUnits="userSpaceOnUse">
<stop stop-color="#F5DE66"/>
<stop offset="1" stop-color="#E8A02E"/>
</linearGradient>
<linearGradient id="paint44_linear_201_8" x1="5.71132" y1="1.88735" x2="11.4662" y2="11.8356" gradientUnits="userSpaceOnUse">
<stop stop-color="#F5DE66"/>
<stop offset="1" stop-color="#E8A02D"/>
</linearGradient>
<linearGradient id="paint45_linear_201_8" x1="5.688" y1="1.86634" x2="11.4303" y2="11.7666" gradientUnits="userSpaceOnUse">
<stop stop-color="#F5DE66"/>
<stop offset="1" stop-color="#E8A02C"/>
</linearGradient>
<linearGradient id="paint46_linear_201_8" x1="5.6647" y1="1.84832" x2="11.3974" y2="11.7005" gradientUnits="userSpaceOnUse">
<stop stop-color="#F5DE66"/>
<stop offset="1" stop-color="#E8A02B"/>
</linearGradient>
<linearGradient id="paint47_linear_201_8" x1="5.64142" y1="1.82729" x2="11.3646" y2="11.6345" gradientUnits="userSpaceOnUse">
<stop stop-color="#F5DE66"/>
<stop offset="1" stop-color="#E89F2A"/>
</linearGradient>
<linearGradient id="paint48_linear_201_8" x1="5.61814" y1="1.80925" x2="11.3288" y2="11.5685" gradientUnits="userSpaceOnUse">
<stop stop-color="#F5DE66"/>
<stop offset="1" stop-color="#E89F29"/>
</linearGradient>
<linearGradient id="paint49_linear_201_8" x1="5.59775" y1="1.78823" x2="11.2959" y2="11.5056" gradientUnits="userSpaceOnUse">
<stop stop-color="#F5DE66"/>
<stop offset="1" stop-color="#E89F27"/>
</linearGradient>
<linearGradient id="paint50_linear_201_8" x1="5.57445" y1="1.77022" x2="11.263" y2="11.4395" gradientUnits="userSpaceOnUse">
<stop stop-color="#F5DE66"/>
<stop offset="1" stop-color="#E89F26"/>
</linearGradient>
<linearGradient id="paint51_linear_201_8" x1="5.55116" y1="1.75521" x2="11.2301" y2="11.3765" gradientUnits="userSpaceOnUse">
<stop stop-color="#F5DE66"/>
<stop offset="1" stop-color="#E89F25"/>
</linearGradient>
<radialGradient id="paint52_radial_201_8" cx="0" cy="0" r="1" gradientUnits="userSpaceOnUse" gradientTransform="translate(7.24447 8.3094) scale(0.901961 0.931164)">
<stop stop-color="#734B45"/>
<stop offset="1" stop-color="#351714"/>
</radialGradient>
<radialGradient id="paint53_radial_201_8" cx="0" cy="0" r="1" gradientUnits="userSpaceOnUse" gradientTransform="translate(12.8541 -1.02627) scale(0.901961 0.931164)">
<stop stop-color="#734B45"/>
<stop offset="1" stop-color="#351714"/>
</radialGradient>
<radialGradient id="paint54_radial_201_8" cx="0" cy="0" r="1" gradientUnits="userSpaceOnUse" gradientTransform="translate(10.0495 11.4693) scale(3.78823 3.91089)">
<stop stop-color="#734B45"/>
<stop offset="1" stop-color="#351714"/>
</radialGradient>
</defs>
</svg>
