<svg width="48" height="48" viewBox="0 0 48 48" fill="none" xmlns="http://www.w3.org/2000/svg">
<g clip-path="url(#clip0_208_803)">
<path d="M24 48C37.2548 48 48 37.2548 48 24C48 10.7452 37.2548 0 24 0C10.7452 0 0 10.7452 0 24C0 37.2548 10.7452 48 24 48Z" fill="#A9AAAB"/>
<path d="M23.4168 27.208H25.9128L26.4588 17.614L26.5888 14H22.7408L22.8708 17.614L23.4168 27.208ZM24.6648 34.124C26.0168 34.124 27.0568 33.032 27.0568 31.628C27.0568 30.198 26.0168 29.132 24.6648 29.132C23.3128 29.132 22.2988 30.198 22.2988 31.628C22.2988 33.032 23.3128 34.124 24.6648 34.124Z" fill="white"/>
</g>
<defs>
<clipPath id="clip0_208_803">
<rect width="48" height="48" fill="white"/>
</clipPath>
</defs>
</svg>
