<svg width="23" height="29" viewBox="0 0 23 29" fill="none" xmlns="http://www.w3.org/2000/svg">
<g clip-path="url(#clip0_201_512)">
<path d="M22.5559 20.5252C22.5198 20.6348 21.9784 22.5522 20.6431 24.5244C19.4883 26.2226 18.2914 27.9391 16.4027 27.9696C14.5441 28 13.9487 26.8496 11.8314 26.8496C9.71422 26.8496 9.04658 27.9391 7.29025 28C5.47378 28.073 4.07834 26.1435 2.91748 24.4513C0.541631 20.9817 -1.28687 14.6209 1.16116 10.36C2.36412 8.22957 4.53547 6.87217 6.89328 6.83565C8.67366 6.79913 10.3638 8.05304 11.4405 8.05304C12.5171 8.05304 14.5983 6.53739 16.7576 6.76261C17.6598 6.79913 20.192 7.14609 21.822 9.53218C21.6957 9.61739 18.7966 11.3461 18.8267 14.8644C18.8688 19.113 22.5138 20.507 22.5498 20.5191M15.3501 4.49217C16.3245 3.29304 16.9621 1.64348 16.7937 0C15.4042 0.0547826 13.7081 0.931304 12.7036 2.12435C11.8134 3.16522 11.0315 4.83913 11.248 6.46435C12.7938 6.56174 14.3817 5.6487 15.3501 4.49217Z" fill="#222222"/>
</g>
<defs>
<clipPath id="clip0_201_512">
<rect width="23" height="29" fill="white"/>
</clipPath>
</defs>
</svg>
